<svg xmlns="http://www.w3.org/2000/svg" viewBox="0 0 6713.16 733.36"><defs><style>.cls-1{fill:#181e1f;}</style></defs><title>GH</title><g id="Layer_2" data-name="Layer 2"><g id="Layer_1-2" data-name="Layer 1"><path class="cls-1" d="M2578.3,221.65c-120.49,0-232.16,99.92-232.16,250.78,0,161.63,114.61,255.67,243.92,255.67,114.61,0,190-67.6,215.5-150.86l-96-30.37c-15.67,47-50.93,83.27-119.5,83.27-70.53,0-127.35-51.92-130.29-124.41H2808.5c1-2,2.94-17.63,2.94-36.24C2811.44,318.63,2725.24,221.65,2578.3,221.65ZM2462.71,422.47c3.92-50.94,45.06-105.8,116.57-105.8,78.37,0,115.59,50,117.55,105.8Z"/><path class="cls-1" d="M3131.26,430.3l-72.49-14.69c-29.39-5.88-48-24.49-48-50,0-29.38,28.41-54.85,68.57-54.85,63.67,0,84.24,44.08,88.16,71.51l96-27.43c-7.84-47-50.94-133.23-184.16-133.23-98.94,0-175.34,70.53-175.34,153.8,0,65.63,44.08,120.49,128.32,139.1l70.53,15.67c38.2,7.84,55.83,27.43,55.83,52.9,0,29.38-24.48,54.85-71.5,54.85-60.74,0-93.06-38.2-97-81.3l-98.94,27.43c5.88,53.87,58.78,144,196.9,144,121.46,0,180.24-80.33,180.24-152.82C3268.4,504.75,3221.38,449.9,3131.26,430.3Z"/><path class="cls-1" d="M3538.92,567.45V346.06h98.94V245.17h-98.94v-146H3436.06v71.51c0,42.12-22.53,74.45-73.47,74.45H3338.1V346.06h88.17v240c0,89.14,54.85,142,143,142,41.15,0,62.7-7.84,69.55-10.78v-94c-4.89,1-23.51,3.92-39.18,3.92C3557.53,627.2,3538.92,609.57,3538.92,567.45Z"/><polygon class="cls-1" points="4476.56 320.59 4150.36 320.59 4150.36 33.58 4032.81 33.58 4032.81 728.1 4150.36 728.1 4150.36 431.28 4476.56 431.28 4476.56 728.1 4595.09 728.1 4595.09 33.58 4476.56 33.58 4476.56 320.59"/><path class="cls-1" d="M4942.79,221.65c-142,0-246.86,106.78-246.86,252.74,0,146.93,104.82,253.71,246.86,253.71,143,0,247.83-106.78,247.83-253.71C5190.62,328.43,5085.81,221.65,4942.79,221.65Zm0,404.57c-69.55,0-133.22-52.9-133.22-151.83s63.67-149.88,133.22-149.88c70.53,0,133.22,50.94,133.22,149.88C5076,574.3,5013.32,626.22,4942.79,626.22Z"/><path class="cls-1" d="M6032.68,430.3l-72.49-14.69c-29.39-5.88-48-24.49-48-50,0-29.38,28.41-54.85,68.57-54.85,63.67,0,84.24,44.08,88.16,71.51l96-27.43c-7.84-47-50.94-133.23-184.16-133.23-98.94,0-175.34,70.53-175.34,153.8,0,65.63,44.08,120.49,128.32,139.1l70.53,15.67c38.2,7.84,55.83,27.43,55.83,52.9,0,29.38-24.48,54.85-71.5,54.85-60.74,0-93.06-38.2-97-81.3l-98.94,27.43c5.88,53.87,58.78,144,196.9,144,121.46,0,180.24-80.33,180.24-152.82C6169.82,504.75,6122.8,449.9,6032.68,430.3Z"/><path class="cls-1" d="M6713.16,469.49c0-150.86-86.2-247.84-233.14-247.84-120.49,0-232.16,99.92-232.16,250.78,0,161.63,114.61,255.67,243.91,255.67,114.61,0,190-67.6,215.51-150.86l-96-30.37c-15.67,47-50.94,83.27-119.51,83.27-70.52,0-127.34-51.92-130.28-124.41h348.73C6711.2,503.77,6713.16,488.1,6713.16,469.49Zm-348.73-47c3.92-50.94,45.06-105.8,116.57-105.8,78.37,0,115.59,50,117.55,105.8Z"/><path class="cls-1" d="M5595.76,518.65c0,70.32-38.57,107.37-102.08,107.37-62,0-101.32-37-101.32-107.37V237.87H5288V526.21c0,131.57,91.49,201.89,205.67,201.89,114.93,0,206.42-70.32,206.42-201.89V237.87H5595.76Z"/><path class="cls-1" d="M2154.31,518.65c0,70.32-38.56,107.37-102.07,107.37-62,0-101.32-37-101.32-107.37V237.87H1846.57V526.21c0,131.57,91.49,201.89,205.67,201.89,114.93,0,206.42-70.32,206.42-201.89V237.87H2154.31Z"/><path class="cls-1" d="M1426.82,112.92c110.69,0,179.26,66.61,202.77,145l110.69-42.12c-37.22-114.61-145-211.59-313.46-211.59-180.24,0-349.71,133.22-349.71,361.46,0,229.22,160.65,362.45,341.87,362.45.66,0,1.27-.06,1.93-.06l-.08.06c369.79,0,316.4-366.37,316.4-366.37H1395.47V464.59h229.22c-5.87,59.75-58.77,155.75-198.85,155.75-119.51,0-229.22-85.22-229.22-254.69C1196.62,193.25,1314.17,112.92,1426.82,112.92Z"/><circle class="cls-1" cx="508.18" cy="137.79" r="137.79" transform="translate(51.41 399.69) rotate(-45)"/><path class="cls-1" d="M0,217.36V516C0,633.6,121,730.12,270.34,733.36V0C121,3.24,0,99.75,0,217.36Z"/><path class="cls-1" d="M374.9,733.36C524.29,730.12,645.24,633.6,645.24,516V383.94H374.9Z"/></g></g></svg>